<svg width="23" height="21" viewBox="0 0 23 21" fill="none" xmlns="http://www.w3.org/2000/svg">
<path d="M11.2053 18.965C16.1361 15.5847 18.7221 12.5095 19.7827 9.93577C21.7741 5.10128 18.3833 2.03525 15.0391 2.03525C13.6122 2.03525 12.1932 2.59391 11.2053 3.81162C10.2172 2.59366 8.79871 2.03525 7.3715 2.03525C4.02755 2.03525 0.636638 5.1017 2.62793 9.93577C3.68848 12.5095 6.27449 15.5847 11.2053 18.965ZM11.2053 21.0002C10.8033 21.0002 10.4013 20.8814 10.0545 20.6436C5.23122 17.3371 2.09945 13.9953 0.746174 10.7112C-0.379118 7.97941 -0.227502 5.3232 1.173 3.23161C2.50772 1.23828 4.88284 0 7.3715 0C8.7658 0 10.0907 0.392615 11.2053 1.11202C12.3199 0.392618 13.6448 0 15.0391 0C17.5279 0 19.9031 1.23823 21.2378 3.23147C22.6382 5.32298 22.7898 7.97924 21.6645 10.711C20.3111 13.9953 17.1794 17.337 12.3561 20.6436C12.0093 20.8814 11.6073 21.0002 11.2053 21.0002Z" fill="#95989A"/>
</svg>
