<svg width="22" height="24" viewBox="0 0 22 24" fill="none" xmlns="http://www.w3.org/2000/svg">
<path d="M14.3975 4.68973C14.3975 6.72552 12.7472 8.37585 10.7114 8.37585C8.67559 8.37585 7.02526 6.72552 7.02526 4.68973C7.02526 2.65394 8.67559 1.00361 10.7114 1.00361C12.7472 1.00361 14.3975 2.65394 14.3975 4.68973Z" stroke="#95989A" stroke-width="2"/>
<g clip-path="url(#clip0_12_1679)">
<path d="M20.9965 23.1471V18.7402C20.9543 17.456 20.4044 16.241 19.4674 15.3617C18.5304 14.4825 17.2828 14.0109 15.9985 14.0504H6.00158C4.71726 14.0109 3.46973 14.4825 2.53273 15.3617C1.59573 16.241 1.0458 17.456 1.00361 18.7402V23.1471" stroke="#95989A" stroke-width="2"/>
</g>
<defs>
<clipPath id="clip0_12_1679">
<rect width="21.921" height="10.064" fill="white" transform="translate(0 13.0469) scale(1.00361)"/>
</clipPath>
</defs>
</svg>
