<svg width="352" height="30" viewBox="0 0 352 30" fill="none" xmlns="http://www.w3.org/2000/svg">
<rect y="8" width="352" height="14" rx="7" fill="#F3F3F3"/>
<path d="M16 30C24.8366 30 32 23.2843 32 15C32 6.71573 24.8366 0 16 0C7.16344 0 0 6.71573 0 15C0 23.2843 7.16344 30 16 30Z" fill="#F3F3F3"/>
<path d="M174 30C182.837 30 190 23.2843 190 15C190 6.71573 182.837 0 174 0C165.163 0 158 6.71573 158 15C158 23.2843 165.163 30 174 30Z" fill="#F3F3F3"/>
<path d="M336 30C344.837 30 352 23.2843 352 15C352 6.71573 344.837 0 336 0C327.163 0 320 6.71573 320 15C320 23.2843 327.163 30 336 30Z" fill="#F3F3F3"/>
<g filter="url(#filter0_d_2080_384)">
<mask id="path-5-inside-1_2080_384" fill="white">
<path fill-rule="evenodd" clip-rule="evenodd" d="M26.8595 19C25.1579 23.0974 20.9191 26 15.9593 26C9.49892 26 4.26172 21.0751 4.26172 15C4.26172 8.92487 9.49892 4 15.9593 4C20.9191 4 25.1579 6.90264 26.8595 11H154C156.209 11 158 12.7909 158 15C158 17.2091 156.209 19 154 19H26.8595Z"/>
</mask>
<path fill-rule="evenodd" clip-rule="evenodd" d="M26.8595 19C25.1579 23.0974 20.9191 26 15.9593 26C9.49892 26 4.26172 21.0751 4.26172 15C4.26172 8.92487 9.49892 4 15.9593 4C20.9191 4 25.1579 6.90264 26.8595 11H154C156.209 11 158 12.7909 158 15C158 17.2091 156.209 19 154 19H26.8595Z" fill="#FF5F00"/>
<path d="M26.8595 19V17H25.5245L25.0125 18.2329L26.8595 19ZM26.8595 11L25.0125 11.7671L25.5245 13H26.8595V11ZM15.9593 28C21.6972 28 26.6836 24.6383 28.7066 19.7671L25.0125 18.2329C23.6322 21.5564 20.1409 24 15.9593 24V28ZM2.26172 15C2.26172 22.2938 8.51199 28 15.9593 28V24C10.4859 24 6.26172 19.8565 6.26172 15H2.26172ZM15.9593 2C8.51199 2 2.26172 7.70622 2.26172 15H6.26172C6.26172 10.1435 10.4859 6 15.9593 6V2ZM28.7066 10.2329C26.6836 5.36171 21.6972 2 15.9593 2V6C20.1409 6 23.6322 8.44357 25.0125 11.7671L28.7066 10.2329ZM26.8595 13H154V9H26.8595V13ZM154 13C155.105 13 156 13.8954 156 15H160C160 11.6863 157.314 9 154 9V13ZM156 15C156 16.1046 155.105 17 154 17V21C157.314 21 160 18.3137 160 15H156ZM154 17H26.8595V21H154V17Z" fill="white" mask="url(#path-5-inside-1_2080_384)"/>
</g>
<defs>
<filter id="filter0_d_2080_384" x="-1.73828" y="1" width="165.738" height="34" filterUnits="userSpaceOnUse" color-interpolation-filters="sRGB">
<feFlood flood-opacity="0" result="BackgroundImageFix"/>
<feColorMatrix in="SourceAlpha" type="matrix" values="0 0 0 0 0 0 0 0 0 0 0 0 0 0 0 0 0 0 127 0" result="hardAlpha"/>
<feOffset dy="3"/>
<feGaussianBlur stdDeviation="3"/>
<feColorMatrix type="matrix" values="0 0 0 0 0 0 0 0 0 0 0 0 0 0 0 0 0 0 0.160784 0"/>
<feBlend mode="normal" in2="BackgroundImageFix" result="effect1_dropShadow_2080_384"/>
<feBlend mode="normal" in="SourceGraphic" in2="effect1_dropShadow_2080_384" result="shape"/>
</filter>
</defs>
</svg>
