<svg width="35" height="35" viewBox="0 0 35 35" fill="none" xmlns="http://www.w3.org/2000/svg">
<path d="M17 35C26.3888 35 34 27.165 34 17.5C34 7.83502 26.3888 0 17 0C7.61116 0 0 7.83502 0 17.5C0 27.165 7.61116 35 17 35Z" fill="#F8F8F8"/>
<g clip-path="url(#clip0_12_2035)">
<path d="M19.4516 17.5C19.4516 17.945 19.3216 18.38 19.0781 18.75C18.8346 19.12 18.4885 19.4084 18.0836 19.5787C17.6787 19.749 17.2331 19.7936 16.8032 19.7068C16.3734 19.6199 15.9785 19.4057 15.6686 19.091C15.3587 18.7763 15.1476 18.3754 15.0621 17.939C14.9766 17.5025 15.0205 17.0501 15.1882 16.639C15.3559 16.2278 15.64 15.8764 16.0044 15.6292C16.3688 15.382 16.7973 15.25 17.2355 15.25C17.8233 15.25 18.3869 15.4871 18.8025 15.909C19.2181 16.331 19.4516 16.9033 19.4516 17.5Z" stroke="#F15B29" stroke-linecap="round" stroke-linejoin="round"/>
<path d="M22.5363 19.6819C22.4408 19.9013 22.4124 20.1448 22.4545 20.3807C22.4966 20.6167 22.6074 20.8345 22.7726 21.0059L22.816 21.0499C23.0848 21.3229 23.2358 21.693 23.2358 22.0789C23.2358 22.4649 23.0848 22.835 22.816 23.1079C22.5472 23.3809 22.1826 23.5342 21.8025 23.5342C21.4224 23.5342 21.0579 23.3809 20.7891 23.1079L20.7457 23.0639C20.5782 22.8995 20.3669 22.7885 20.138 22.7447C19.909 22.701 19.6724 22.7263 19.4575 22.8176C19.2425 22.9089 19.0586 23.0621 18.9286 23.2584C18.7985 23.4547 18.728 23.6854 18.7257 23.9219V24.0459C18.7159 24.4251 18.5607 24.7854 18.2931 25.05C18.0255 25.3147 17.6667 25.4628 17.2932 25.4628C16.9196 25.4628 16.5608 25.3147 16.2933 25.05C16.0257 24.7854 15.8704 24.4251 15.8607 24.0459V23.9799C15.8555 23.739 15.779 23.5051 15.6411 23.3089C15.5032 23.1127 15.3103 22.9632 15.0875 22.8799C14.8714 22.7831 14.6317 22.7541 14.3993 22.7969C14.1668 22.8397 13.9524 22.9522 13.7835 23.1199L13.7402 23.1639C13.4714 23.4369 13.1068 23.5902 12.7267 23.5902C12.3466 23.5902 11.982 23.4369 11.7133 23.1639C11.4445 22.891 11.2935 22.5209 11.2935 22.1349C11.2935 21.749 11.4445 21.3789 11.7133 21.1059L11.7566 21.0619C11.9186 20.8919 12.0278 20.6773 12.071 20.4448C12.1141 20.2124 12.0892 19.9722 11.9992 19.7539C11.9093 19.5357 11.7584 19.349 11.5651 19.2169C11.3717 19.0849 11.1445 19.0133 10.9116 19.0109H10.7894C10.5982 19.016 10.4078 18.9822 10.2296 18.9114C10.0514 18.8406 9.88901 18.7342 9.75194 18.5987C9.61487 18.4631 9.50594 18.3011 9.43155 18.122C9.35717 17.943 9.31885 17.7507 9.31885 17.5564C9.31885 17.3622 9.35717 17.1698 9.43155 16.9908C9.50594 16.8118 9.61487 16.6498 9.75194 16.5142C9.88901 16.3786 10.0514 16.2723 10.2296 16.2015C10.4078 16.1307 10.5982 16.0969 10.7894 16.1019H10.8535C11.0908 16.0967 11.3211 16.019 11.5143 15.879C11.7076 15.739 11.8548 15.5431 11.9368 15.3169C12.0323 15.0975 12.0607 14.8541 12.0186 14.6181C11.9765 14.3821 11.8657 14.1644 11.7005 13.9929L11.6571 13.9489C11.5167 13.8156 11.4041 13.655 11.3261 13.4765C11.248 13.2981 11.2062 13.1056 11.203 12.9104C11.1997 12.7152 11.2353 12.5213 11.3074 12.3404C11.3795 12.1594 11.4867 11.995 11.6227 11.857C11.7587 11.719 11.9207 11.6102 12.0989 11.537C12.2772 11.4639 12.4682 11.4279 12.6604 11.4313C12.8526 11.4347 13.0423 11.4773 13.2179 11.5566C13.3936 11.6359 13.5518 11.7503 13.6831 11.8929L13.7264 11.9369C13.8952 12.1047 14.1097 12.2172 14.3421 12.26C14.5746 12.3028 14.8143 12.2738 15.0304 12.1769H15.0875C15.2996 12.0846 15.4804 11.9312 15.6077 11.7357C15.7349 11.5403 15.803 11.3113 15.8035 11.0769V10.9549C15.8133 10.5758 15.9685 10.2155 16.2361 9.95085C16.5037 9.68619 16.8625 9.53809 17.2361 9.53809C17.6096 9.53809 17.9684 9.68619 18.236 9.95085C18.5036 10.2155 18.6588 10.5758 18.6686 10.9549V11.0199C18.6709 11.2565 18.7414 11.4872 18.8715 11.6835C19.0015 11.8797 19.1854 12.033 19.4003 12.1243C19.6153 12.2156 19.8519 12.2409 20.0808 12.1971C20.3098 12.1534 20.5211 12.0424 20.6886 11.8779L20.7319 11.8339C20.865 11.6988 21.023 11.5916 21.1969 11.5185C21.3708 11.4454 21.5572 11.4077 21.7454 11.4077C21.9336 11.4077 22.12 11.4454 22.2939 11.5185C22.4678 11.5916 22.6258 11.6988 22.7589 11.8339C22.8919 11.9691 22.9975 12.1295 23.0695 12.3061C23.1416 12.4826 23.1786 12.6718 23.1786 12.8629C23.1786 13.054 23.1416 13.2433 23.0695 13.4198C22.9975 13.5964 22.8919 13.7568 22.7589 13.8919L22.7155 13.9359C22.5503 14.1074 22.4395 14.3251 22.3974 14.5611C22.3552 14.7971 22.3837 15.0405 22.4791 15.2599V15.3179C22.5701 15.5333 22.7212 15.7169 22.9137 15.8461C23.1062 15.9753 23.3318 16.0444 23.5625 16.0449H23.6847C24.0581 16.0549 24.4129 16.2125 24.6736 16.4842C24.9342 16.7559 25.0801 17.1202 25.0801 17.4994C25.0801 17.8787 24.9342 18.243 24.6736 18.5147C24.4129 18.7864 24.0581 18.944 23.6847 18.9539H23.6177C23.3869 18.9545 23.1614 19.0236 22.9688 19.1528C22.7763 19.282 22.6253 19.4656 22.5343 19.6809L22.5363 19.6819Z" stroke="#F15B29" stroke-linecap="round" stroke-linejoin="round"/>
</g>
<defs>
<clipPath id="clip0_12_2035">
<rect width="16.7432" height="17" fill="white" transform="translate(8.86401 9)"/>
</clipPath>
</defs>
</svg>
