<svg width="11" height="11" viewBox="0 0 11 11" fill="none" xmlns="http://www.w3.org/2000/svg">
<path d="M8.03854 0C8.03061 0 8.02003 0 8.0121 0C6.96233 0 6.0342 0.555294 5.50006 1.37501C4.96592 0.555294 4.03778 0 2.98801 0C2.98008 0 2.9695 0 2.96157 0C1.32477 0.0158655 0 1.34593 0 2.98801C0 3.96639 0.42837 5.35462 1.26396 6.49694C2.8558 8.67317 5.50006 10.577 5.50006 10.577C5.50006 10.577 8.14432 8.67317 9.73616 6.49694C10.5717 5.35462 11.0001 3.96639 11.0001 2.98801C11.0001 1.34593 9.67534 0.0158655 8.03854 0Z" fill="#F15B29"/>
</svg>
