<svg width="18" height="20" viewBox="0 0 18 20" fill="none" xmlns="http://www.w3.org/2000/svg">
<path fill-rule="evenodd" clip-rule="evenodd" d="M11.4286 0H5.7143V1.90477H11.4286V0ZM7.61907 12.381H9.52384V6.66669H7.61907V12.381ZM15.2667 6.08573L16.6191 4.73335C16.2096 4.24763 15.7619 3.79049 15.2762 3.39049L13.9238 4.74287C12.4477 3.56191 10.5905 2.85715 8.57145 2.85715C3.83811 2.85715 0 6.69526 0 11.4286C0 16.162 3.82858 20.0001 8.57145 20.0001C13.3143 20.0001 17.1429 16.162 17.1429 11.4286C17.1429 9.40955 16.4381 7.5524 15.2667 6.08573ZM8.57145 18.0953C4.88573 18.0953 1.90477 15.1143 1.90477 11.4286C1.90477 7.74288 4.88573 4.76192 8.57145 4.76192C12.2572 4.76192 15.2381 7.74288 15.2381 11.4286C15.2381 15.1143 12.2572 18.0953 8.57145 18.0953Z" fill="black"/>
</svg>
