<svg width="27" height="17" viewBox="0 0 27 17" fill="none" xmlns="http://www.w3.org/2000/svg">
<path d="M26.0556 14.7222C26.0556 15.7041 25.0154 16.5 23.7323 16.5H2.82323C1.54015 16.5 0.5 15.7041 0.5 14.7222V4.94444C0.5 3.9626 1.54015 3.16667 2.82323 3.16667H7.4697L9.79293 0.5H16.7626L19.0859 3.16667H23.7323C25.0154 3.16667 26.0556 3.9626 26.0556 4.94444V14.7222Z" stroke="black" stroke-linecap="round" stroke-linejoin="round"/>
<path d="M17.2894 9.29829C17.2894 11.5136 15.4936 13.3095 13.2783 13.3095C11.063 13.3095 9.26709 11.5136 9.26709 9.29829C9.26709 7.08297 11.063 5.28711 13.2783 5.28711C15.4936 5.28711 17.2894 7.08297 17.2894 9.29829Z" stroke="black" stroke-linecap="round" stroke-linejoin="round"/>
</svg>
