<svg width="16" height="16" viewBox="0 0 16 16" fill="none" xmlns="http://www.w3.org/2000/svg">
<path d="M9.68652 6.31333L6.3132 9.68664C5.87987 9.25331 5.61321 8.65998 5.61321 7.99998C5.61321 6.67999 6.67987 5.61333 7.99986 5.61333C8.65986 5.61333 9.25319 5.87999 9.68652 6.31333Z" stroke="#1F1F1F" stroke-width="0.988201" stroke-linecap="round" stroke-linejoin="round"/>
<path d="M11.8799 3.8466C10.7133 2.9666 9.37994 2.48661 7.99995 2.48661C5.64663 2.48661 3.4533 3.87327 1.92664 6.27325C1.32665 7.21325 1.32665 8.79324 1.92664 9.73324C2.45331 10.5599 3.06664 11.2732 3.7333 11.8466" stroke="#1F1F1F" stroke-width="0.988201" stroke-linecap="round" stroke-linejoin="round"/>
<path d="M5.61321 13.0198C6.3732 13.3398 7.17986 13.5131 7.99986 13.5131C10.3532 13.5131 12.5465 12.1264 14.0732 9.72646C14.6732 8.78646 14.6732 7.20647 14.0732 6.26647C13.8532 5.91981 13.6132 5.59314 13.3665 5.28648" stroke="#1F1F1F" stroke-width="0.988201" stroke-linecap="round" stroke-linejoin="round"/>
<path d="M10.3403 8.46681C10.1669 9.40681 9.40026 10.1735 8.46026 10.3468" stroke="#1F1F1F" stroke-width="0.988201" stroke-linecap="round" stroke-linejoin="round"/>
<path d="M6.31333 9.68677L1.33335 14.6667" stroke="#1F1F1F" stroke-width="0.988201" stroke-linecap="round" stroke-linejoin="round"/>
<path d="M14.6667 1.33311L9.68677 6.31309" stroke="#1F1F1F" stroke-width="0.988201" stroke-linecap="round" stroke-linejoin="round"/>
</svg>
