<svg width="32" height="28" viewBox="0 0 32 28" fill="none" xmlns="http://www.w3.org/2000/svg">
<path id="Vector" d="M29.5325 2.4754C28.7506 1.69063 27.8222 1.06809 26.8004 0.643351C25.7786 0.218613 24.6834 0 23.5774 0C22.4714 0 21.3762 0.218613 20.3544 0.643351C19.3326 1.06809 18.4042 1.69063 17.6223 2.4754L15.9996 4.10333L14.3769 2.4754C12.7975 0.890955 10.6554 0.000821275 8.42177 0.000821291C6.18818 0.000821308 4.04607 0.890955 2.46668 2.4754C0.887291 4.05985 1.66416e-08 6.20882 0 8.44957C-1.66416e-08 10.6903 0.887291 12.8393 2.46668 14.4237L4.0894 16.0517L15.9996 28L27.9098 16.0517L29.5325 14.4237C30.3148 13.6393 30.9353 12.708 31.3587 11.6829C31.7821 10.6579 32 9.55915 32 8.44957C32 7.33999 31.7821 6.24129 31.3587 5.21622C30.9353 4.19115 30.3148 3.25981 29.5325 2.4754Z" fill="#FF5790"/>
</svg>
